<?xml version="1.0" encoding="utf-8"?>
<svg xmlns="http://www.w3.org/2000/svg" viewBox="0 0 500 500" xmlns:bx="https://boxy-svg.com" width="500px" height="500px"><defs><bx:export><bx:file format="svg"/></bx:export></defs><g id="Bold" transform="matrix(20.816082, 0, 0, 20.822199, -3845.166748, -3556.379639)" style=""><circle cx="191.725" cy="192.809" r="2" style="stroke-width: 1; fill: rgb(255, 255, 255);"/><circle cx="201.725" cy="192.809" r="2" style="stroke-width: 1; fill: rgb(255, 255, 255);"/><path d="M 207.709 176.827 C 207.005 176.154 206.063 175.787 205.089 175.809 L 190.379 175.809 L 190.116 173.747 C 189.918 172.072 188.499 170.809 186.812 170.809 L 186.225 170.809 C 185.396 170.809 184.725 171.48 184.725 172.309 C 184.725 173.137 185.396 173.809 186.225 173.809 L 186.812 173.809 C 186.981 173.811 187.122 173.94 187.138 174.109 L 188.638 185.868 C 188.834 187.544 190.254 188.808 191.942 188.809 L 202.064 188.809 C 204.539 188.807 206.708 187.153 207.364 184.767 L 208.61 180.236 C 208.948 179.02 208.604 177.717 207.709 176.827 Z M 204.475 183.972 C 204.174 185.055 203.189 185.806 202.064 185.809 L 191.942 185.809 C 191.772 185.807 191.632 185.677 191.617 185.509 L 190.762 178.809 L 205.239 178.809 C 205.57 178.806 205.812 179.121 205.725 179.441 L 204.475 183.972 Z" style="stroke-width: 1; fill: rgb(255, 255, 255);"/></g></svg>